<svg xmlns="http://www.w3.org/2000/svg" width="18.487" height="14.79" viewBox="0 0 18.487 14.79">
  <g id="Group_7348" data-name="Group 7348" transform="translate(-5663.756 -7962.432)">
    <path id="_216124_camera_icon" data-name="216124_camera_icon" d="M17.714,5.849H16.248l-.924-.924A3.465,3.465,0,0,0,13.092,4h-3.7a3.465,3.465,0,0,0-2.231.924l-.924.924H4.773A2.776,2.776,0,0,0,2,8.622v7.395a2.776,2.776,0,0,0,2.773,2.773H17.714a2.776,2.776,0,0,0,2.773-2.773V8.622A2.776,2.776,0,0,0,17.714,5.849Zm-6.47,9.243a3.235,3.235,0,1,1,3.235-3.235A3.236,3.236,0,0,1,11.243,15.092Zm5.546-4.345a1.2,1.2,0,1,1,1.2-1.2A1.2,1.2,0,0,1,16.789,10.747Z" transform="translate(5661.756 7958.432)" fill="#484848"/>
  </g>
</svg>
