<svg xmlns="http://www.w3.org/2000/svg" width="28.993" height="27.857" viewBox="0 0 28.993 27.857">
  <g id="Group_7124" data-name="Group 7124" transform="translate(-314.494 -431.025)">
    <path id="Path_14076" data-name="Path 14076" d="M317.944,443.788c-2.875,0-3.45,3.239-3.45,3.8v7.5c0,.555.575,3.8,3.45,3.8h.172a2.752,2.752,0,0,0,2.79-2.646v-9.8a2.753,2.753,0,0,0-2.79-2.647Z" fill="#038cf5"/>
    <path id="Path_19640" data-name="Path 19640" d="M342.687,446.662a1.114,1.114,0,0,1-.054-1.332,2.07,2.07,0,0,0,.158-1.875,2.635,2.635,0,0,0-1.09-1.266,12.544,12.544,0,0,0-6.729-1.365,1.066,1.066,0,0,1-1.075-1.36c1.044-5.2-1.956-8.317-3.779-8.435-1.174-.075-2.118,1-1.67,4.068a7.6,7.6,0,0,1-.079,1.839v.018h0a5.581,5.581,0,0,1-2.028,3.558s-3.277,2.371-3.277,5.783c0,1.441-.067,2.053.024,7.53s8.041,4.548,13,4.289,4.34-3.211,4.34-3.211c2.008-.474,1.933-2.221,1.687-3.276a1.054,1.054,0,0,1,.428-1.125,2.13,2.13,0,0,0,.947-1.812A3.311,3.311,0,0,0,342.687,446.662Z" fill="#038cf5"/>
  </g>
</svg>
