<svg xmlns="http://www.w3.org/2000/svg" width="58.067" height="55.79" viewBox="0 0 58.067 55.79">
  <g id="Group_7146" data-name="Group 7146" transform="translate(-314.494 -431.025)">
    <path id="Path_14076" data-name="Path 14076" d="M321.4,443.788c-5.758,0-6.91,6.487-6.91,7.6v15.021c0,1.112,1.152,7.6,6.91,7.6h.344a5.512,5.512,0,0,0,5.588-5.3V449.093a5.514,5.514,0,0,0-5.588-5.3Z" transform="translate(0 12.798)" fill="#038cf5"/>
    <path id="Path_19640" data-name="Path 19640" d="M362.391,462.342a2.231,2.231,0,0,1-.108-2.668,4.146,4.146,0,0,0,.316-3.755,5.277,5.277,0,0,0-2.183-2.536c-4.2-2.588-9.89-2.87-13.477-2.734a2.136,2.136,0,0,1-2.153-2.724c2.091-10.412-3.917-16.657-7.568-16.893-2.351-.15-4.242,2-3.345,8.147a15.215,15.215,0,0,1-.158,3.683l0,.036,0,0a11.179,11.179,0,0,1-4.062,7.126s-6.563,4.749-6.563,11.582c0,2.886-.134,4.112.048,15.081s16.1,9.109,26.036,8.59,8.692-6.431,8.692-6.431c4.022-.949,3.871-4.448,3.379-6.561a2.111,2.111,0,0,1,.857-2.253,4.266,4.266,0,0,0,1.9-3.629A6.631,6.631,0,0,0,362.391,462.342Z" transform="translate(8.567 0)" fill="#038cf5"/>
  </g>
</svg>
